<svg viewBox="380 0 100 100" fill="none" aria-label="Partytown Logo" xmlns="http://www.w3.org/2000/svg" class="partyTownLogo_svg__astro-WRNPNDP3"><title>Partytown Logo</title><path d="M389.333 25.544a4.387 4.387 0 1 0 0-8.773 4.387 4.387 0 0 0 0 8.773ZM456.515 21.825a4.387 4.387 0 1 0-.001-8.773 4.387 4.387 0 0 0 .001 8.773Z" fill="#FF37AD" class="partyTownLogo_svg__astro-WRNPNDP3"/><path d="M460.075 78.183a4.387 4.387 0 1 0-.001-8.773 4.387 4.387 0 0 0 .001 8.773ZM407.249 8.773a4.387 4.387 0 1 0 0-8.773 4.387 4.387 0 0 0 0 8.773Z" fill="#FCC954" class="partyTownLogo_svg__astro-WRNPNDP3"/><path d="M433.202 39.236a3.425 3.425 0 0 1-3.324-4.253c.137-.549.249-1.1.333-1.65a9.409 9.409 0 0 1-3.234.705c-1.992.076-3.776-.26-5.296-.996a8.232 8.232 0 0 1-3.561-3.288c-1.635-2.834-1.494-6.562.357-9.498 1.765-2.803 4.754-4.32 7.995-4.072 2.496.195 4.684 1.13 6.436 2.734.319-.9.625-1.864.916-2.89 1.79-6.318 2.381-12.662 2.386-12.726a3.422 3.422 0 0 1 3.719-3.1 3.425 3.425 0 0 1 3.1 3.72c-.025.284-.655 7.048-2.618 13.976-.991 3.498-2.162 6.454-3.489 8.814.098.526.176 1.066.234 1.619.276 2.671.056 5.546-.635 8.313a3.428 3.428 0 0 1-3.319 2.592Zm-7.453-16.232c-.354 0-.978.104-1.48.9-.481.763-.575 1.805-.218 2.424.475.823 1.872.895 2.663.865.898-.034 1.818-.597 2.718-1.623a6.001 6.001 0 0 0-.53-.897c-.743-1.032-1.684-1.56-2.962-1.66-.048-.003-.113-.009-.191-.009Z" fill="#2890E9" class="partyTownLogo_svg__astro-WRNPNDP3"/><path d="M423.356 48.617c-14.201-11.194-29.044-16.044-33.153-10.832a4.742 4.742 0 0 0-.836 1.67c-.025.073-.045.15-.058.226v.009c-.055.234-.096.47-.123.71l-8.04 47.073c-1.288 7.56 6.196 13.613 13.321 10.775l43.6-17.373c.769-.306 2.661-1.475 3.179-2.12a4.5 4.5 0 0 0 .384-.427c4.108-5.213-4.074-18.514-18.274-29.712Z" fill="#F0A420" class="partyTownLogo_svg__astro-WRNPNDP3"/><path d="M441.625 78.33c4.111-5.215-4.068-18.518-18.269-29.713-14.201-11.195-29.046-16.043-33.157-10.828-4.111 5.215 4.068 18.518 18.269 29.713 14.201 11.195 29.046 16.043 33.157 10.828Z" fill="#FCC954" class="partyTownLogo_svg__astro-WRNPNDP3"/><path d="M439.146 75.293c3.373-4.28-4.058-15.764-16.599-25.65-12.541-9.887-25.443-14.432-28.816-10.153-3.374 4.28 4.057 15.764 16.598 25.65 12.541 9.887 25.443 14.433 28.817 10.153Z" fill="#F0A420" class="partyTownLogo_svg__astro-WRNPNDP3"/><path d="M409.17 92.39c-5.306.026-9.631-2.63-14.873-6.762-6.1-4.81-10.151-10.568-10.471-13.847l-1.729 10.121c.8 2.888 3.527 6.549 7.482 9.667 3.29 2.594 6.609 4.375 10.05 4.622l9.541-3.802ZM403.862 74.02c-10.164-8.014-16.767-17.21-16.581-22.47l-1.685 9.863c.13 4.698 5.62 12.29 13.43 18.447 6.998 5.517 14.29 9.4 19.874 8.653l9.479-3.778c-7.637.528-15.695-3.758-24.517-10.715Z" fill="#2E6AC9" class="partyTownLogo_svg__astro-WRNPNDP3"/><path d="M424.902 53.722a4.387 4.387 0 1 0 0-8.773 4.387 4.387 0 0 0 0 8.773Z" fill="#2890E9" class="partyTownLogo_svg__astro-WRNPNDP3"/><path fill-rule="evenodd" clip-rule="evenodd" d="m448.56 45.187.032-.036c.04-.043.114-.122.221-.23.216-.216.563-.548 1.037-.948a22.42 22.42 0 0 1 4.294-2.826c3.751-1.898 9.336-3.447 16.661-1.758a4.089 4.089 0 1 0 1.838-7.97c-9.482-2.186-17.021-.187-22.193 2.432a30.563 30.563 0 0 0-5.873 3.87 24.248 24.248 0 0 0-1.561 1.432 16.795 16.795 0 0 0-.567.598l-.044.05-.016.018-.007.008-.003.003c-.001.002-.003.004 3.097 2.67l-3.1-2.666a4.09 4.09 0 0 0 6.184 5.353Z" fill="#FF37AD" class="partyTownLogo_svg__astro-WRNPNDP3"/><path d="M408.048 16.017a4.351 4.351 0 0 0-6.011-1.357 4.355 4.355 0 0 0-1.357 6.01c.158.253 3.399 5.504 4.065 12.695.678 7.306-1.469 14.022-6.39 20.044 1.657 2.106 3.651 4.295 5.929 6.484 3.152-3.642 5.523-7.556 7.081-11.697 1.917-5.095 2.595-10.497 2.017-16.055-.921-8.842-4.768-15.226-5.334-16.124Z" fill="#FF37AD" class="partyTownLogo_svg__astro-WRNPNDP3"/><path d="M462.571 57.991c2.223.575 3.794 1.202 4.473 1.494a4.392 4.392 0 0 0 5.163-.415 4.395 4.395 0 0 0 1.521-3.246 4.388 4.388 0 0 0-2.985-4.232c-2.081-.924-9.965-4.044-20.387-3.49-7.015.373-13.761 2.316-20.049 5.781-5.954 3.281-11.483 7.93-16.502 13.861a73.556 73.556 0 0 0 7.47 4.669c8.475-9.659 18.253-14.895 29.148-15.587a39.207 39.207 0 0 1 12.148 1.165Z" fill="#2890E9" class="partyTownLogo_svg__astro-WRNPNDP3"/></svg>